<?xml version="1.0" encoding="UTF-8"?>
<svg width="694px" height="694px" viewBox="0 0 694 694" version="1.1" xmlns="http://www.w3.org/2000/svg" xmlns:xlink="http://www.w3.org/1999/xlink">
    <title>Icon</title>
    <g id="Page-1" stroke="none" stroke-width="1" fill="none" fill-rule="evenodd">
        <g id="Group" transform="translate(-165.000000, -165.000000)">
            <g id="Icon" transform="translate(165.000000, 165.000000)">
                <g id="lock_black_24dp">
                    <polygon id="Path" points="0 0 694 0 694 694 0 694"></polygon>
                    <path d="M520.5,230.199346 L491.583333,230.199346 L491.583333,172.204015 C491.583333,92.1704575 426.81,27.2156863 347,27.2156863 C267.19,27.2156863 202.416667,92.1704575 202.416667,172.204015 L202.416667,230.199346 L173.5,230.199346 C141.691667,230.199346 115.666667,256.297246 115.666667,288.194678 L115.666667,578.171335 C115.666667,610.068768 141.691667,636.166667 173.5,636.166667 L520.5,636.166667 C552.308333,636.166667 578.333333,610.068768 578.333333,578.171335 L578.333333,288.194678 C578.333333,256.297246 552.308333,230.199346 520.5,230.199346 Z M436.641667,230.199346 L257.358333,230.199346 L257.358333,172.204015 C257.358333,122.618007 297.5525,82.3112512 347,82.3112512 C396.4475,82.3112512 436.641667,122.618007 436.641667,172.204015 L436.641667,230.199346 Z" id="Shape" fill="#000000" fill-rule="nonzero" opacity="0.78280785"></path>
                </g>
                <g id="favorite_border_black_24dp" transform="translate(214.000000, 306.000000)">
                    <polygon id="Path" points="0 0 262 0 262 262 0 262"></polygon>
                    <path d="M181.698701,30.6233766 C162.753039,30.6233766 144.569558,39.4849641 132.701299,53.4884603 C120.833039,39.4849641 102.649558,30.6233766 83.7038961,30.6233766 C50.1678961,30.6233766 23.8181818,57.0987367 23.8181818,90.7946495 C23.8181818,132.148724 60.8384416,165.844637 116.913247,217.04492 L132.701299,231.376623 L148.489351,216.935518 C204.564156,165.844637 241.584416,132.148724 241.584416,90.7946495 C241.584416,57.0987367 215.234701,30.6233766 181.698701,30.6233766 Z M133.79013,200.743975 L132.701299,201.837999 L131.612468,200.743975 C79.7841039,153.591578 45.5948052,122.411918 45.5948052,90.7946495 C45.5948052,68.9141866 61.9272727,52.5038395 83.7038961,52.5038395 C100.471896,52.5038395 116.804364,63.3346686 122.575169,78.3227857 L142.936312,78.3227857 C148.598234,63.3346686 164.930701,52.5038395 181.698701,52.5038395 C203.475325,52.5038395 219.807792,68.9141866 219.807792,90.7946495 C219.807792,122.411918 185.618494,153.591578 133.79013,200.743975 Z" id="Shape" fill="#FF8181" fill-rule="nonzero"></path>
                </g>
            </g>
        </g>
    </g>
</svg>